# xmcd
#
# Track frame offsets: 
#        150
#        19235
#        35255
#        61513
#        78648
#        94505
#        115935
#        146871
#        161704
#        173730
#        188399
#        207154
#        222106
#        239069
#        254133
#        268049
#        278797
#        296161
#        309455
#        324654
#
# Disc length: 4490 seconds
#
# Revision: 0
# Processed by: cddbd v1.5.2PL0 Copyright (c) Steve Scherf et al.
# Submitted via: ExactAudioCopy v1.3
#
DISCID=2a118814
DTITLE=Collard Greens and Gravy - Greasy Greens
DYEAR=2014
DGENRE=Blues
TTITLE0=I'm Going
TTITLE1=You Got My Mind Messed Up
TTITLE2=I Wanna Die Easy
TTITLE3=Wind Is Blowing
TTITLE4=Sick Bed Blues
TTITLE5=Take Sick and Die
TTITLE6=St James Infirmary
TTITLE7=Wait Till My Change
TTITLE8=Pretty Thing
TTITLE9=Love Me Right
TTITLE10=Standing On A Limb
TTITLE11=Silver Bird
TTITLE12=No Love
TTITLE13=Sometimes I Wonder
TTITLE14=Jesus Gonna Make Up My Dying Bed
TTITLE15=So Much Trouble
TTITLE16=So Sad This Morning
TTITLE17=Low Down
TTITLE18=Goin Back Home
TTITLE19=Out Last Night
EXTD=
EXTT0=
EXTT1=
EXTT2=
EXTT3=
EXTT4=
EXTT5=
EXTT6=
EXTT7=
EXTT8=
EXTT9=
EXTT10=
EXTT11=
EXTT12=
EXTT13=
EXTT14=
EXTT15=
EXTT16=
EXTT17=
EXTT18=
EXTT19=
PLAYORDER=
